<?xml version="1.0" encoding="utf-8"?>
<!-- Generator: Adobe Illustrator 15.0.0, SVG Export Plug-In . SVG Version: 6.00 Build 0)  -->
<!DOCTYPE svg PUBLIC "-//W3C//DTD SVG 1.1//EN" "http://www.w3.org/Graphics/SVG/1.1/DTD/svg11.dtd">
<svg version="1.1" id="Layer_1" xmlns="http://www.w3.org/2000/svg" xmlns:xlink="http://www.w3.org/1999/xlink" x="0px" y="0px"
	 width="393px" height="179px" viewBox="0 0 393 179" enable-background="new 0 0 393 179" xml:space="preserve">
<g>
	<path fill="#1C3664" d="M32.853,31.496c0,3-2.1,5.4-5.601,5.4c-3.2,0-5.3-2.4-5.3-5.4s2.2-5.5,5.5-5.5
		C30.653,25.996,32.853,28.396,32.853,31.496z M23.052,93.5V45.097h8.801V93.5H23.052z"/>
	<path fill="#1C3664" d="M64.652,58.198c0-5.101-0.1-9.101-0.4-13.102h7.8l0.5,8.001h0.2c2.4-4.5,8-9.001,16.001-9.001
		c6.701,0,17.101,4.001,17.101,20.602V93.5h-8.8V65.599c0-7.801-2.9-14.301-11.201-14.301c-5.701,0-10.201,4.1-11.801,9
		c-0.4,1.101-0.6,2.601-0.6,4.101V93.5h-8.801V58.198z"/>
	<path fill="#1C3664" d="M180.053,22.496v58.503c0,4.301,0.2,9.201,0.4,12.501h-7.8l-0.4-8.4h-0.3c-2.6,5.4-8.4,9.5-16.301,9.5
		c-11.701,0-20.801-9.9-20.801-24.601c-0.1-16.102,10-25.902,21.701-25.902c7.5,0,12.401,3.501,14.601,7.301h0.2V22.496H180.053z
		 M171.353,64.798c0-1.1-0.1-2.6-0.4-3.7c-1.3-5.5-6.1-10.101-12.701-10.101c-9.101,0-14.501,8.001-14.501,18.602
		c0,9.801,4.9,17.901,14.301,17.901c5.9,0,11.301-4.001,12.901-10.501c0.3-1.2,0.4-2.4,0.4-3.8V64.798z"/>
	<path fill="#1C3664" d="M222.751,31.496c0,3-2.101,5.4-5.601,5.4c-3.2,0-5.3-2.4-5.3-5.4s2.2-5.5,5.5-5.5
		C220.551,25.996,222.751,28.396,222.751,31.496z M212.95,93.5V45.097h8.801V93.5H212.95z"/>
	<path fill="#1C3664" d="M295.952,86.399c0,11.201-2.3,17.901-6.9,22.201c-4.801,4.301-11.601,5.801-17.701,5.801
		c-5.801,0-12.201-1.4-16.101-4l2.199-6.801c3.2,2.101,8.201,3.9,14.201,3.9c9.001,0,15.602-4.7,15.602-17.001v-5.301h-0.2
		c-2.601,4.501-7.9,8.101-15.401,8.101c-12.001,0-20.602-10.2-20.602-23.602c0-16.4,10.701-25.602,21.901-25.602
		c8.401,0,12.901,4.301,15.102,8.301h0.2l0.3-7.301h7.8c-0.3,3.4-0.399,7.4-0.399,13.201V86.399z M287.151,64.198
		c0-1.5-0.1-2.8-0.5-3.9c-1.6-5.2-5.8-9.4-12.301-9.4c-8.4,0-14.4,7.101-14.4,18.301c0,9.501,4.899,17.401,14.301,17.401
		c5.5,0,10.4-3.4,12.2-9.001c0.5-1.5,0.7-3.2,0.7-4.7V64.198z"/>
	<path fill="#1C3664" d="M372.452,68.898c0,17.901-12.501,25.701-24.102,25.701c-13.001,0-23.202-9.601-23.202-24.901
		c0-16.101,10.701-25.602,24.002-25.602C363.051,44.097,372.452,54.197,372.452,68.898z M334.149,69.398
		c0,10.601,6,18.602,14.601,18.602c8.4,0,14.701-7.9,14.701-18.802c0-8.2-4.101-18.501-14.501-18.501
		C338.649,50.697,334.149,60.298,334.149,69.398z"/>
	<path fill="#1C3664" d="M38.418,145.552c-1.012,0.484-3.256,1.232-6.117,1.232c-6.425,0-10.605-4.356-10.605-10.87
		c0-6.557,4.488-11.354,11.441-11.354c2.289,0,4.312,0.572,5.369,1.145l-0.88,2.948c-0.924-0.484-2.376-1.013-4.489-1.013
		c-4.885,0-7.525,3.653-7.525,8.054c0,4.929,3.168,7.965,7.393,7.965c2.2,0,3.652-0.528,4.752-1.012L38.418,145.552z"/>
	<path fill="#1C3664" d="M64.423,135.475c0,7.877-5.501,11.31-10.605,11.31c-5.721,0-10.209-4.225-10.209-10.958
		c0-7.085,4.708-11.266,10.562-11.266C60.287,124.561,64.423,129.005,64.423,135.475z M47.569,135.694
		c0,4.665,2.64,8.186,6.425,8.186c3.697,0,6.469-3.477,6.469-8.273c0-3.608-1.805-8.142-6.381-8.142
		C49.549,127.465,47.569,131.689,47.569,135.694z"/>
	<path fill="#1C3664" d="M71.769,130.766c0-2.244-0.044-4.005-0.176-5.765h3.432l0.22,3.521h0.088
		c1.056-1.98,3.521-3.961,7.041-3.961c2.949,0,7.525,1.761,7.525,9.065V146.3h-3.873v-12.277c0-3.433-1.276-6.293-4.929-6.293
		c-2.508,0-4.489,1.804-5.193,3.96c-0.176,0.484-0.264,1.145-0.264,1.805V146.3h-3.873V130.766z"/>
	<path fill="#1C3664" d="M98.125,142.383c1.188,0.704,3.212,1.497,5.148,1.497c2.772,0,4.093-1.364,4.093-3.169
		c0-1.849-1.1-2.816-3.917-3.872c-3.873-1.408-5.677-3.477-5.677-6.029c0-3.433,2.816-6.249,7.349-6.249
		c2.157,0,4.049,0.572,5.193,1.32l-0.924,2.816c-0.836-0.528-2.376-1.276-4.357-1.276c-2.288,0-3.521,1.32-3.521,2.904
		c0,1.761,1.232,2.553,4.005,3.653c3.652,1.363,5.589,3.212,5.589,6.381c0,3.784-2.949,6.425-7.921,6.425
		c-2.333,0-4.489-0.616-5.985-1.496L98.125,142.383z"/>
	<path fill="#1C3664" d="M136.363,140.447c0,2.244,0.044,4.181,0.176,5.853h-3.432l-0.22-3.477h-0.088
		c-0.968,1.716-3.257,3.961-7.041,3.961c-3.345,0-7.349-1.893-7.349-9.33v-12.453h3.873v11.749c0,4.049,1.276,6.821,4.752,6.821
		c2.597,0,4.401-1.804,5.105-3.564c0.22-0.528,0.352-1.232,0.352-1.98v-13.025h3.873V140.447z"/>
	<path fill="#1C3664" d="M145.248,115.056h3.873V146.3h-3.873V115.056z"/>
	<path fill="#1C3664" d="M162.76,119.896v5.104h5.545v2.948h-5.545v11.485c0,2.641,0.749,4.137,2.905,4.137
		c1.056,0,1.672-0.088,2.244-0.264l0.176,2.948c-0.748,0.264-1.936,0.528-3.432,0.528c-1.804,0-3.256-0.616-4.181-1.629
		c-1.056-1.188-1.496-3.08-1.496-5.589v-11.617h-3.301v-2.948h3.301v-3.961L162.76,119.896z"/>
	<path fill="#1C3664" d="M179.436,119.016c0,1.32-0.924,2.377-2.464,2.377c-1.408,0-2.332-1.057-2.332-2.377s0.968-2.42,2.42-2.42
		C178.468,116.596,179.436,117.651,179.436,119.016z M175.124,146.3v-21.299h3.873V146.3H175.124z"/>
	<path fill="#1C3664" d="M187.883,130.766c0-2.244-0.044-4.005-0.176-5.765h3.432l0.22,3.521h0.088
		c1.056-1.98,3.521-3.961,7.041-3.961c2.949,0,7.525,1.761,7.525,9.065V146.3h-3.872v-12.277c0-3.433-1.276-6.293-4.929-6.293
		c-2.509,0-4.489,1.804-5.193,3.96c-0.176,0.484-0.264,1.145-0.264,1.805V146.3h-3.873V130.766z"/>
	<path fill="#1C3664" d="M232.985,143.176c0,4.929-1.012,7.877-3.036,9.769c-2.112,1.893-5.104,2.553-7.789,2.553
		c-2.553,0-5.369-0.616-7.085-1.76l0.968-2.993c1.408,0.925,3.609,1.717,6.249,1.717c3.961,0,6.865-2.068,6.865-7.481v-2.332h-0.088
		c-1.145,1.98-3.477,3.564-6.777,3.564c-5.28,0-9.065-4.489-9.065-10.386c0-7.217,4.709-11.266,9.638-11.266
		c3.696,0,5.677,1.893,6.646,3.652h0.088l0.132-3.212h3.433c-0.133,1.496-0.177,3.256-0.177,5.809V143.176z M229.113,133.406
		c0-0.66-0.044-1.232-0.22-1.717c-0.704-2.288-2.553-4.137-5.413-4.137c-3.696,0-6.337,3.125-6.337,8.054
		c0,4.181,2.156,7.657,6.293,7.657c2.42,0,4.576-1.496,5.368-3.961c0.221-0.66,0.309-1.408,0.309-2.068V133.406z"/>
	<path fill="#1C3664" d="M271.837,143.176c0,4.929-1.012,7.877-3.036,9.769c-2.112,1.893-5.104,2.553-7.789,2.553
		c-2.553,0-5.369-0.616-7.085-1.76l0.968-2.993c1.408,0.925,3.609,1.717,6.249,1.717c3.961,0,6.865-2.068,6.865-7.481v-2.332h-0.088
		c-1.145,1.98-3.477,3.564-6.777,3.564c-5.28,0-9.065-4.489-9.065-10.386c0-7.217,4.709-11.266,9.638-11.266
		c3.696,0,5.677,1.893,6.646,3.652h0.088l0.132-3.212h3.433c-0.133,1.496-0.177,3.256-0.177,5.809V143.176z M267.965,133.406
		c0-0.66-0.044-1.232-0.22-1.717c-0.704-2.288-2.553-4.137-5.413-4.137c-3.696,0-6.337,3.125-6.337,8.054
		c0,4.181,2.156,7.657,6.293,7.657c2.42,0,4.576-1.496,5.368-3.961c0.221-0.66,0.309-1.408,0.309-2.068V133.406z"/>
	<path fill="#1C3664" d="M280.415,131.646c0-2.508-0.044-4.664-0.177-6.645h3.389l0.176,4.225h0.133
		c0.968-2.86,3.344-4.665,5.94-4.665c0.396,0,0.704,0.044,1.056,0.088v3.652c-0.396-0.088-0.792-0.088-1.319-0.088
		c-2.729,0-4.665,2.024-5.193,4.929c-0.088,0.528-0.132,1.188-0.132,1.805V146.3h-3.872V131.646z"/>
	<path fill="#1C3664" d="M316.101,135.475c0,7.877-5.501,11.31-10.605,11.31c-5.721,0-10.21-4.225-10.21-10.958
		c0-7.085,4.709-11.266,10.562-11.266C311.964,124.561,316.101,129.005,316.101,135.475z M299.246,135.694
		c0,4.665,2.641,8.186,6.425,8.186c3.696,0,6.469-3.477,6.469-8.273c0-3.608-1.804-8.142-6.381-8.142
		C301.227,127.465,299.246,131.689,299.246,135.694z"/>
	<path fill="#1C3664" d="M341.269,140.447c0,2.244,0.044,4.181,0.176,5.853h-3.433l-0.22-3.477h-0.088
		c-0.969,1.716-3.257,3.961-7.041,3.961c-3.345,0-7.35-1.893-7.35-9.33v-12.453h3.873v11.749c0,4.049,1.276,6.821,4.753,6.821
		c2.596,0,4.4-1.804,5.104-3.564c0.22-0.528,0.352-1.232,0.352-1.98v-13.025h3.873V140.447z"/>
	<path fill="#1C3664" d="M350.154,131.954c0-2.729-0.089-4.929-0.177-6.953h3.433l0.221,3.652h0.088
		c1.54-2.597,4.092-4.093,7.568-4.093c5.193,0,9.065,4.356,9.065,10.781c0,7.657-4.708,11.442-9.726,11.442
		c-2.816,0-5.28-1.232-6.557-3.345h-0.088v11.573h-3.828V131.954z M353.982,137.631c0,0.572,0.044,1.1,0.176,1.584
		c0.704,2.685,3.037,4.532,5.809,4.532c4.093,0,6.47-3.344,6.47-8.229c0-4.225-2.245-7.878-6.337-7.878
		c-2.641,0-5.149,1.849-5.854,4.753c-0.132,0.484-0.264,1.057-0.264,1.54V137.631z"/>
</g>
</svg>
