<?xml version="1.0" encoding="utf-8"?>
<!-- Generator: Adobe Illustrator 15.0.0, SVG Export Plug-In . SVG Version: 6.00 Build 0)  -->
<!DOCTYPE svg PUBLIC "-//W3C//DTD SVG 1.1//EN" "http://www.w3.org/Graphics/SVG/1.1/DTD/svg11.dtd">
<svg version="1.1" id="Layer_1" xmlns="http://www.w3.org/2000/svg" xmlns:xlink="http://www.w3.org/1999/xlink" x="0px" y="0px"
	 width="148px" height="116px" viewBox="0 0 148 116" enable-background="new 0 0 148 116" xml:space="preserve">
<g>
	<path fill="#FFFFFF" d="M25.052,19.496c0,3-2.1,5.4-5.601,5.4c-3.2,0-5.3-2.4-5.3-5.4s2.2-5.5,5.5-5.5
		C22.852,13.996,25.052,16.396,25.052,19.496z M15.251,81.5V33.097h8.801V81.5H15.251z"/>
	<path fill="#FFFFFF" d="M78.152,79.799c-2.301,1.102-7.4,2.801-13.9,2.801C49.651,82.6,40.15,72.7,40.15,57.898
		c0-14.901,10.201-25.801,26.001-25.801c5.2,0,9.801,1.3,12.201,2.6l-2,6.7c-2.1-1.1-5.399-2.3-10.201-2.3
		c-11.101,0-17.101,8.301-17.101,18.301c0,11.202,7.201,18.101,16.801,18.101c5,0,8.3-1.2,10.799-2.3L78.152,79.799z"/>
	<path fill="#FFFFFF" d="M134.854,74.398c0,11.201-2.301,17.901-6.899,22.201c-4.802,4.301-11.601,5.801-17.701,5.801
		c-5.801,0-12.201-1.4-16.103-4l2.201-6.801c3.199,2.101,8.2,3.899,14.2,3.899c9.001,0,15.601-4.699,15.601-17v-5.301h-0.198
		c-2.601,4.5-7.899,8.1-15.401,8.1c-12.001,0-20.602-10.2-20.602-23.601c0-16.401,10.701-25.602,21.9-25.602
		c8.401,0,12.901,4.3,15.103,8.3h0.2l0.3-7.3h7.8c-0.3,3.4-0.398,7.4-0.398,13.201v28.103H134.854z M126.053,52.198
		c0-1.5-0.1-2.8-0.5-3.9c-1.6-5.2-5.801-9.4-12.301-9.4c-8.4,0-14.4,7.101-14.4,18.301c0,9.501,4.9,17.4,14.301,17.4
		c5.5,0,10.4-3.399,12.201-9c0.5-1.5,0.699-3.201,0.699-4.701V52.198z"/>
</g>
</svg>
